<svg xmlns="http://www.w3.org/2000/svg" viewBox="0 0 198.1 168.43"><defs><style>.cls-1{fill:#fff;}</style></defs><title>logospidy</title><g id="Layer_2" data-name="Layer 2"><g id="Layer_1-2" data-name="Layer 1"><path d="M192.81,153.81l-5.62-9.14a7.06,7.06,0,0,0-4-3.07l-5.24-1.51,5-2a4.7,4.7,0,0,0,2.77-3.79l1.54-7.7a1.93,1.93,0,0,0-1.51-2.27,1.8,1.8,0,0,0-.38,0,1.93,1.93,0,0,0-1.89,1.55l-1.56,7.8,0,.22a.83.83,0,0,1-.42.67l-4.39,1.71.76-.72.15-.16a6.9,6.9,0,0,0,.76-7.76l-3.35-6.15a1.93,1.93,0,1,0-3.39,1.85l3.36,6.15a3.06,3.06,0,0,1-.28,3.37l-1.77,1.68a8.07,8.07,0,0,0-2.88-.73V118.44a5,5,0,0,0,4.5-5.11l-1.72-53.62c0-.16,0-.33,0-.51-.1-3.78.49-12.71.25-17.21s-.53-9.46-.87-14.88a5,5,0,0,0-1.7-3.61,4.72,4.72,0,0,0-3.76-1.24,5.29,5.29,0,0,0-3.5,1.8,4.56,4.56,0,0,0-1.24,3.66,69.3,69.3,0,0,1,.05,8.81,57.63,57.63,0,0,1-.88,7.16,40.57,40.57,0,0,1-1.44,5.56,34.5,34.5,0,0,1-1.65,4,19.47,19.47,0,0,1-2.42,3.86A15,15,0,0,1,154,59.24l-.57-2.52q-.36-1.59-.77-4.27-.52-3.5-.82-7.47t-.51-7.57q-.21-3.71-.41-6.23t-.46-4.33a18.85,18.85,0,0,0-.62-2.94,6.59,6.59,0,0,0-1-2,5,5,0,0,0-7.11-1.34,5,5,0,0,0-2.11,3,5.23,5.23,0,0,0,.36,3.6q.1.62.26,1.8c.1.79.21,1.7.31,2.73s.21,2.1.31,3.19.19,2.16.26,3.19q.31,4.63.67,9.58A80.63,80.63,0,0,0,143,57a32.1,32.1,0,0,0,2.27,7.93,10.25,10.25,0,0,0,1.85,2.94,8.16,8.16,0,0,0,2.11,1.65,6.71,6.71,0,0,0,2.06.72,11.28,11.28,0,0,0,1.7.15q5.46-.31,10.3-5.67l.13-.15,1.57,49.1a5,5,0,0,0,4.5,4.79v15.37a8.09,8.09,0,0,0-2.86.74l-1.78-1.69a3.06,3.06,0,0,1-.28-3.37l3.35-6.15a1.93,1.93,0,0,0-3.39-1.85l-3.35,6.15a6.9,6.9,0,0,0,.76,7.76l.93.89-4.33-1.68a.85.85,0,0,1-.5-.71l-1.59-8a1.93,1.93,0,0,0-1.89-1.55,1.82,1.82,0,0,0-.38,0,1.93,1.93,0,0,0-1.51,2.27l1.54,7.7a4.74,4.74,0,0,0,2.85,3.82L162,140.1l-5.26,1.52a7,7,0,0,0-4,3.06l-5.62,9.14a1.93,1.93,0,0,0,3.28,2l5.62-9.14a3.19,3.19,0,0,1,1.78-1.38l3.3-1-3.26,2.39-.37.25c-1.17.81-2.94,2-2.94,4.33v13.49a1.93,1.93,0,1,0,3.86,0V151.34c0-.28.71-.77,1.27-1.16l2.86-2.09a14.87,14.87,0,0,0-1.53,6.73c0,6.67,4,11.9,9,11.9s9-5.23,9-11.9a14.88,14.88,0,0,0-1.5-6.67l2.38,1.74a6.33,6.33,0,0,1,1.68,3.37v11.57a1.93,1.93,0,1,0,3.86,0V153.26a9.7,9.7,0,0,0-3.28-6.5l-3.29-2.41,3.28.95a3.2,3.2,0,0,1,1.8,1.39l5.62,9.14a1.93,1.93,0,0,0,3.28-2ZM14.74,12.07a3.35,3.35,0,0,1,2.88-1.75,4.49,4.49,0,0,1,2.78.82,12.82,12.82,0,0,1,2.88,2.68,25.56,25.56,0,0,1,3.24,5.56,43,43,0,0,1,2.83,10.2,4.76,4.76,0,0,0,2.06,3.3,5.08,5.08,0,0,0,3.81.93,5.25,5.25,0,0,0,3.4-2.11,5.1,5.1,0,0,0,.93-3.86q-2.16-13.08-8.24-20.5a21.37,21.37,0,0,0-6.59-5.61A14,14,0,0,0,17.31,0,13.15,13.15,0,0,0,7.42,4.76,19.74,19.74,0,0,0,3,15.68,22.45,22.45,0,0,0,7.73,31.44a35.76,35.76,0,0,0,5,5.41q2.78,2.42,5.67,4.79,2.37,2,4.58,3.86a34.32,34.32,0,0,1,3.86,3.86,10.27,10.27,0,0,1,2.37,7.21,4.43,4.43,0,0,1-2.52,3.71,9.45,9.45,0,0,1-4.89,1.13,12.22,12.22,0,0,1-4.07-.93,9.51,9.51,0,0,1-3.61-2.68,15.53,15.53,0,0,1-2.68-4.74,21.54,21.54,0,0,1-1.18-7,5.09,5.09,0,0,0-1.65-3.61A4.89,4.89,0,0,0,5,41.12,4.76,4.76,0,0,0,1.4,42.66,4.79,4.79,0,0,0,0,46.37q.31,11.85,6.9,18.75a21.65,21.65,0,0,0,14.52,6.59h.72A19.61,19.61,0,0,0,28,70.83a18.89,18.89,0,0,0,5.1-2.42A14.45,14.45,0,0,0,39.46,57.6a19.91,19.91,0,0,0-4.53-14.52,35.68,35.68,0,0,0-4.69-5q-2.63-2.32-5.3-4.48Q22,31.33,19.78,29.27A31.5,31.5,0,0,1,16,25.2a13.56,13.56,0,0,1-2.21-4.07,11,11,0,0,1-.46-4.43A10.54,10.54,0,0,1,14.74,12.07ZM134.16,48.79Q134,42.56,134,36.17t-.15-14q-.16-7.52-1.08-16.89a4.94,4.94,0,0,0-1.85-3.5A5.06,5.06,0,0,0,127.11.64a4.85,4.85,0,0,0-3.4,1.86,5.06,5.06,0,0,0-1.13,3.81q.62,6.7.82,12.31t.31,10.76a26.45,26.45,0,0,0-8-2A15.27,15.27,0,0,0,104,31a15.43,15.43,0,0,0-3.55,4.43A17.15,17.15,0,0,0,98.63,41a22.57,22.57,0,0,0-.05,6.28,24.55,24.55,0,0,0,1.75,6.49,27.29,27.29,0,0,0,11.33,13.08,29.1,29.1,0,0,0,9.27,3.71,37.63,37.63,0,0,0,4,.62,41.1,41.1,0,0,0,4.17.21h1.65a15.48,15.48,0,0,0,1.75-.1,5.21,5.21,0,0,0,3.5-1.85,4.72,4.72,0,0,0,1.24-3.71,6.16,6.16,0,0,0-2-3.71A125,125,0,0,1,134.16,48.79Zm-15.91,10a18.65,18.65,0,0,1-4.43-3.09,15.63,15.63,0,0,1-2.68-3.3,27.74,27.74,0,0,1-1.34-2.52,12.76,12.76,0,0,1-1.13-6.44,6.47,6.47,0,0,1,2.06-4.58q1.75-1.55,5.2-1a23,23,0,0,1,7.78,3q.1,4.84.26,9.68t.77,10.3A21.53,21.53,0,0,1,118.25,58.78ZM71,22.58a26.46,26.46,0,0,0-3.91-1.85,16.89,16.89,0,0,0-5.61-1,26.69,26.69,0,0,0-7.31.93,37.61,37.61,0,0,0-9,3.81,5.59,5.59,0,0,0-2.37,3.14,4.54,4.54,0,0,0,.51,3.86,4.85,4.85,0,0,0,3.5,2.47q0,7.83.05,15.66t.31,15.24q.26,7.42.77,14.27T49.24,91.9a4.62,4.62,0,0,0,1.7,3.19,5.12,5.12,0,0,0,3.35,1.24H55a5.18,5.18,0,0,0,3.4-2,4.73,4.73,0,0,0,1-3.76q-.52-3.92-.93-8.24t-.72-9.06l.21-.1A37.93,37.93,0,0,0,74.27,60.38a32.92,32.92,0,0,0,4.22-7.88,30.8,30.8,0,0,0,1.85-8.6,24.41,24.41,0,0,0-1.75-12.05A19.08,19.08,0,0,0,71,22.58Zm-.82,20.5a23.81,23.81,0,0,1-1,4.79,22,22,0,0,1-2.32,5,26.49,26.49,0,0,1-3.91,4.89A27,27,0,0,1,57.38,62q-.21-7.73-.26-15.6t-.05-15.91q5-1.34,8.45.72A9.83,9.83,0,0,1,69.17,36,15.51,15.51,0,0,1,70.15,43.07Zm19.67-40a5.1,5.1,0,0,0-5.15,5.15v.82l-.26.51a6,6,0,0,1-.36.62,4.76,4.76,0,0,0-.41,3.86,5.47,5.47,0,0,0,2.47,3.14,5.48,5.48,0,0,0,2.47.62,4.94,4.94,0,0,0,4.53-2.68q.51-1,.93-1.75a6,6,0,0,0,.62-1.65,9.42,9.42,0,0,0,.26-1.7c0-.58.05-1.19.05-1.8a5.1,5.1,0,0,0-5.15-5.15Zm3.45,57.22a74.54,74.54,0,0,1-.77-9.94q-.21-5.25-.05-10.4T93,31.13a5.07,5.07,0,0,0-1.13-3.81,4.86,4.86,0,0,0-3.4-1.85,5.17,5.17,0,0,0-3.81,1.08A4.76,4.76,0,0,0,82.82,30q-.52,4.33-.62,10t.1,11.48q.1,3,.31,5.56t.51,4.63q.72,5.46,2.27,7.72a4.73,4.73,0,0,0,4.33,2.37,5.09,5.09,0,0,0,2.78-.72,5.16,5.16,0,0,0,2.27-3.19A4.94,4.94,0,0,0,94.15,64,17.23,17.23,0,0,1,93.27,60.33Z"/><path class="cls-1" d="M197.81,155.47l-5.62-9.14a7.06,7.06,0,0,0-4-3.07l-5.24-1.51,5-2a4.7,4.7,0,0,0,2.77-3.79l1.54-7.7a1.93,1.93,0,0,0-1.51-2.27,1.8,1.8,0,0,0-.38,0,1.93,1.93,0,0,0-1.89,1.55l-1.56,7.8,0,.22a.83.83,0,0,1-.42.67L182.1,138l.76-.72.15-.16a6.9,6.9,0,0,0,.76-7.76l-3.35-6.15A1.93,1.93,0,1,0,177,125l3.36,6.15a3.06,3.06,0,0,1-.28,3.37l-1.77,1.68a8.07,8.07,0,0,0-2.88-.73V120.11A5,5,0,0,0,180,115l-1.72-53.62c0-.16,0-.33,0-.51-.1-3.78.49-12.71.25-17.21s-.53-9.46-.87-14.88a5,5,0,0,0-1.7-3.61,4.72,4.72,0,0,0-3.76-1.24,5.29,5.29,0,0,0-3.5,1.8,4.56,4.56,0,0,0-1.24,3.66,69.3,69.3,0,0,1,.05,8.81,57.63,57.63,0,0,1-.88,7.16,40.57,40.57,0,0,1-1.44,5.56,34.5,34.5,0,0,1-1.65,4,19.47,19.47,0,0,1-2.42,3.86A15,15,0,0,1,159,60.91l-.57-2.52q-.36-1.59-.77-4.27-.52-3.5-.82-7.47t-.51-7.57q-.21-3.71-.41-6.23t-.46-4.33a18.85,18.85,0,0,0-.62-2.94,6.59,6.59,0,0,0-1-2,5,5,0,0,0-7.11-1.34,5,5,0,0,0-2.11,3,5.23,5.23,0,0,0,.36,3.6q.1.62.26,1.8c.1.79.21,1.7.31,2.73s.21,2.1.31,3.19.19,2.16.26,3.19q.31,4.63.67,9.58A80.63,80.63,0,0,0,148,58.65a32.1,32.1,0,0,0,2.27,7.93,10.25,10.25,0,0,0,1.85,2.94,8.16,8.16,0,0,0,2.11,1.65,6.71,6.71,0,0,0,2.06.72A11.28,11.28,0,0,0,158,72q5.46-.31,10.3-5.67l.13-.15,1.57,49.1a5,5,0,0,0,4.5,4.79v15.37a8.09,8.09,0,0,0-2.86.74l-1.78-1.69a3.06,3.06,0,0,1-.28-3.37L172.9,125a1.93,1.93,0,0,0-3.39-1.85l-3.35,6.15a6.9,6.9,0,0,0,.76,7.76l.93.89-4.33-1.68a.85.85,0,0,1-.5-.71l-1.59-8a1.93,1.93,0,0,0-1.89-1.55,1.82,1.82,0,0,0-.38,0,1.93,1.93,0,0,0-1.51,2.27l1.54,7.7a4.74,4.74,0,0,0,2.85,3.82l4.94,1.92-5.26,1.52a7,7,0,0,0-4,3.06l-5.62,9.14a1.93,1.93,0,0,0,3.28,2l5.62-9.14a3.19,3.19,0,0,1,1.78-1.38l3.3-1-3.26,2.39-.37.25c-1.17.81-2.94,2-2.94,4.33V166.5a1.93,1.93,0,1,0,3.86,0V153c0-.28.71-.77,1.27-1.16l2.86-2.09a14.87,14.87,0,0,0-1.53,6.73c0,6.67,4,11.9,9,11.9s9-5.23,9-11.9a14.88,14.88,0,0,0-1.5-6.67l2.38,1.74a6.33,6.33,0,0,1,1.68,3.37V166.5a1.93,1.93,0,1,0,3.86,0V154.93a9.7,9.7,0,0,0-3.28-6.5L183.82,146l3.28.95a3.2,3.2,0,0,1,1.8,1.39l5.62,9.14a1.93,1.93,0,0,0,3.28-2ZM19.74,13.74A3.35,3.35,0,0,1,22.62,12a4.49,4.49,0,0,1,2.78.82,12.82,12.82,0,0,1,2.88,2.68A25.56,25.56,0,0,1,31.53,21a43,43,0,0,1,2.83,10.2,4.76,4.76,0,0,0,2.06,3.3,5.08,5.08,0,0,0,3.81.93,5.25,5.25,0,0,0,3.4-2.11,5.1,5.1,0,0,0,.93-3.86Q42.39,16.42,36.32,9a21.37,21.37,0,0,0-6.59-5.61,14,14,0,0,0-7.42-1.7,13.15,13.15,0,0,0-9.89,4.74A19.74,19.74,0,0,0,8,17.34,22.45,22.45,0,0,0,12.73,33.1a35.76,35.76,0,0,0,5,5.41q2.78,2.42,5.67,4.79,2.37,2,4.58,3.86A34.32,34.32,0,0,1,31.89,51a10.27,10.27,0,0,1,2.37,7.21,4.43,4.43,0,0,1-2.52,3.71,9.45,9.45,0,0,1-4.89,1.13,12.22,12.22,0,0,1-4.07-.93,9.51,9.51,0,0,1-3.61-2.68,15.53,15.53,0,0,1-2.68-4.74,21.54,21.54,0,0,1-1.18-7,5.09,5.09,0,0,0-1.65-3.61A4.89,4.89,0,0,0,10,42.78,4.76,4.76,0,0,0,6.4,44.33,4.79,4.79,0,0,0,5,48q.31,11.85,6.9,18.75a21.65,21.65,0,0,0,14.52,6.59h.72A19.61,19.61,0,0,0,33,72.5a18.89,18.89,0,0,0,5.1-2.42,14.45,14.45,0,0,0,6.39-10.82,19.91,19.91,0,0,0-4.53-14.52,35.68,35.68,0,0,0-4.69-5q-2.63-2.32-5.3-4.48Q27,33,24.78,30.94A31.5,31.5,0,0,1,21,26.87a13.56,13.56,0,0,1-2.21-4.07,11,11,0,0,1-.46-4.43A10.54,10.54,0,0,1,19.74,13.74ZM139.16,50.46Q139,44.23,139,37.84t-.15-14q-.16-7.52-1.08-16.89a4.94,4.94,0,0,0-1.85-3.5,5.06,5.06,0,0,0-3.81-1.13,4.85,4.85,0,0,0-3.4,1.86A5.06,5.06,0,0,0,127.57,8q.62,6.7.82,12.31T128.71,31a26.45,26.45,0,0,0-8-2A15.27,15.27,0,0,0,109,32.69a15.43,15.43,0,0,0-3.55,4.43,17.15,17.15,0,0,0-1.85,5.56,22.57,22.57,0,0,0-.05,6.28,24.55,24.55,0,0,0,1.75,6.49,27.29,27.29,0,0,0,11.33,13.08,29.1,29.1,0,0,0,9.27,3.71,37.63,37.63,0,0,0,4,.62,41.1,41.1,0,0,0,4.17.21h1.65a15.48,15.48,0,0,0,1.75-.1,5.21,5.21,0,0,0,3.5-1.85,4.72,4.72,0,0,0,1.24-3.71,6.16,6.16,0,0,0-2-3.71A125,125,0,0,1,139.16,50.46Zm-15.91,10a18.65,18.65,0,0,1-4.43-3.09,15.63,15.63,0,0,1-2.68-3.3,27.74,27.74,0,0,1-1.34-2.52,12.76,12.76,0,0,1-1.13-6.44,6.47,6.47,0,0,1,2.06-4.58q1.75-1.55,5.2-1a23,23,0,0,1,7.78,3q.1,4.84.26,9.68t.77,10.3A21.53,21.53,0,0,1,123.25,60.45ZM76,24.24a26.46,26.46,0,0,0-3.91-1.85,16.89,16.89,0,0,0-5.61-1,26.69,26.69,0,0,0-7.31.93,37.61,37.61,0,0,0-9,3.81,5.59,5.59,0,0,0-2.37,3.14,4.54,4.54,0,0,0,.51,3.86,4.85,4.85,0,0,0,3.5,2.47q0,7.83.05,15.66t.31,15.24q.26,7.42.77,14.27t1.34,12.82a4.62,4.62,0,0,0,1.7,3.19A5.12,5.12,0,0,0,59.29,98H60a5.18,5.18,0,0,0,3.4-2,4.73,4.73,0,0,0,1-3.76q-.52-3.92-.93-8.24t-.72-9.06l.21-.1A37.93,37.93,0,0,0,79.27,62a32.92,32.92,0,0,0,4.22-7.88,30.8,30.8,0,0,0,1.85-8.6,24.41,24.41,0,0,0-1.75-12.05A19.08,19.08,0,0,0,76,24.24Zm-.82,20.5a23.81,23.81,0,0,1-1,4.79,22,22,0,0,1-2.32,5,26.49,26.49,0,0,1-3.91,4.89,27,27,0,0,1-5.56,4.22q-.21-7.73-.26-15.6t-.05-15.91q5-1.34,8.45.72a9.83,9.83,0,0,1,3.66,4.74A15.51,15.51,0,0,1,75.15,44.74Zm19.67-40a5.1,5.1,0,0,0-5.15,5.15v.82l-.26.51a6,6,0,0,1-.36.62,4.76,4.76,0,0,0-.41,3.86,5.47,5.47,0,0,0,2.47,3.14,5.48,5.48,0,0,0,2.47.62,4.94,4.94,0,0,0,4.53-2.68q.51-1,.93-1.75a6,6,0,0,0,.62-1.65,9.42,9.42,0,0,0,.26-1.7c0-.58.05-1.19.05-1.8a5.1,5.1,0,0,0-5.15-5.15ZM98.27,62a74.54,74.54,0,0,1-.77-9.94q-.21-5.25-.05-10.4T98,32.79A5.07,5.07,0,0,0,96.88,29a4.86,4.86,0,0,0-3.4-1.85,5.17,5.17,0,0,0-3.81,1.08,4.76,4.76,0,0,0-1.85,3.45q-.52,4.33-.62,10t.1,11.48q.1,3,.31,5.56t.51,4.63q.72,5.46,2.27,7.72a4.73,4.73,0,0,0,4.33,2.37,5.09,5.09,0,0,0,2.78-.72,5.16,5.16,0,0,0,2.27-3.19,4.94,4.94,0,0,0-.62-3.91A17.23,17.23,0,0,1,98.27,62Z"/></g></g></svg>