<svg xmlns="http://www.w3.org/2000/svg" viewBox="0 0 40 40.34"><title>spider_1</title><g id="Layer_2" data-name="Layer 2"><g id="Layer_1-2" data-name="Layer 1"><path d="M4.91,21.31l-4.68,8A1.67,1.67,0,0,0,3.11,31l4.68-8A2.76,2.76,0,0,1,9.3,21.77l2.84-.89L9.37,23l-.31.23c-1,.72-2.5,1.81-2.46,3.8l.26,11.67a1.67,1.67,0,1,0,3.33-.08L9.93,27c0-.24.59-.68,1.08-1l2.43-1.86a12.85,12.85,0,0,0-1.19,5.85c.13,5.77,3.65,10.21,8,10.11s7.67-4.69,7.54-10.46a12.87,12.87,0,0,0-1.43-5.73l2.09,1.46A5.47,5.47,0,0,1,30,28.18l.23,10a1.67,1.67,0,0,0,3.33-.08l-.23-10a8.39,8.39,0,0,0-3-5.55l-2.89-2,2.86.75a2.76,2.76,0,0,1,1.59,1.16l5,7.79a1.67,1.67,0,0,0,2.8-1.81l-5-7.79a6.11,6.11,0,0,0-3.52-2.57l-4.56-1.2,4.3-1.79a4.06,4.06,0,0,0,2.32-3.33l1.18-6.69a1.66,1.66,0,0,0-1.35-1.93,1.56,1.56,0,0,0-.33,0,1.67,1.67,0,0,0-1.6,1.38l-1.19,6.77,0,.19a.72.72,0,0,1-.35.59l-3.76,1.56.64-.63.13-.14a6,6,0,0,0,.5-6.72l-3-5.25A1.67,1.67,0,0,0,21.17,2.5l3,5.25A2.65,2.65,0,0,1,24,10.67l-1.49,1.48a6.78,6.78,0,0,0-5.83.14l-1.57-1.43A2.65,2.65,0,0,1,14.82,8L17.6,2.58a1.67,1.67,0,0,0-3-1.53L11.85,6.43a6,6,0,0,0,.81,6.69l.82.75L9.71,12.51a.73.73,0,0,1-.45-.6L7.73,5a1.67,1.67,0,0,0-1.66-1.3,1.58,1.58,0,0,0-.33,0,1.66,1.66,0,0,0-1.26,2L6,12.37A4.1,4.1,0,0,0,8.5,15.61l4.31,1.56L8.29,18.59a6.09,6.09,0,0,0-3.38,2.72"/></g></g></svg>